<?xml version="1.0" encoding="UTF-8"?>
<svg width="64" height="64" viewBox="0 0 64 64" fill="none" xmlns="http://www.w3.org/2000/svg">
  <defs>
    <linearGradient id="logoBg" x1="10" y1="8" x2="54" y2="56" gradientUnits="userSpaceOnUse">
      <stop offset="0" stop-color="#4F8CFF"/>
      <stop offset="1" stop-color="#6D5DF6"/>
    </linearGradient>
    <linearGradient id="logoStroke" x1="16" y1="18" x2="48" y2="48" gradientUnits="userSpaceOnUse">
      <stop offset="0" stop-color="#FFFFFF"/>
      <stop offset="1" stop-color="#E8F0FF"/>
    </linearGradient>
    <linearGradient id="spark" x1="42" y1="14" x2="50" y2="22" gradientUnits="userSpaceOnUse">
      <stop offset="0" stop-color="#FFFFFF"/>
      <stop offset="1" stop-color="#DCE7FF"/>
    </linearGradient>
  </defs>

  <rect x="6" y="6" width="52" height="52" rx="18" fill="url(#logoBg)"/>
  <rect x="6" y="6" width="52" height="52" rx="18" stroke="rgba(255,255,255,0.35)"/>

  <path d="M19 22.5C23.2 20.2 27.1 19 31.8 19C36.8 19 40.9 20.2 45 22.5V42.5C40.9 40.2 36.8 39 31.8 39C27.1 39 23.2 40.2 19 42.5V22.5Z" fill="rgba(255,255,255,0.12)"/>

  <path d="M21 23.5C24.7 21.4 28.2 20.4 32 20.4C35.8 20.4 39.3 21.4 43 23.5"
        stroke="url(#logoStroke)" stroke-width="2.6" stroke-linecap="round" stroke-linejoin="round"/>
  <path d="M21 23.5V41.5C24.7 39.5 28.2 38.5 32 38.5C35.8 38.5 39.3 39.5 43 41.5V23.5"
        stroke="url(#logoStroke)" stroke-width="2.6" stroke-linecap="round" stroke-linejoin="round"/>
  <path d="M32 21V39" stroke="url(#logoStroke)" stroke-width="2.2" stroke-linecap="round"/>

  <path d="M25.5 27.5H29.2" stroke="white" stroke-width="2" stroke-linecap="round" opacity="0.95"/>
  <path d="M24.4 31H30.3" stroke="white" stroke-width="2" stroke-linecap="round" opacity="0.82"/>
  <path d="M24 34.5H28.2" stroke="white" stroke-width="2" stroke-linecap="round" opacity="0.7"/>

  <path d="M39.7 27.6L37 35.2" stroke="white" stroke-width="2.2" stroke-linecap="round" stroke-linejoin="round"/>
  <path d="M42.4 35.2L39.7 27.6" stroke="white" stroke-width="2.2" stroke-linecap="round" stroke-linejoin="round"/>
  <path d="M37.9 33H41.5" stroke="white" stroke-width="2" stroke-linecap="round"/>
  <path d="M45.1 27.8V35.1" stroke="white" stroke-width="2.2" stroke-linecap="round"/>
  <path d="M43.7 27.8H46.5" stroke="white" stroke-width="2" stroke-linecap="round" opacity="0.92"/>
  <path d="M43.7 35.1H46.5" stroke="white" stroke-width="2" stroke-linecap="round" opacity="0.92"/>

  <path d="M46 14.5L47.1 17.2L49.8 18.3L47.1 19.4L46 22.1L44.9 19.4L42.2 18.3L44.9 17.2L46 14.5Z" fill="url(#spark)"/>
</svg>
